<?xml version="1.0" encoding="UTF-8" standalone="no"?><!-- Generator: Gravit.io --><svg xmlns="http://www.w3.org/2000/svg" xmlns:xlink="http://www.w3.org/1999/xlink" style="isolation:isolate" viewBox="8 8 48 48" width="48pt" height="48pt"><defs><clipPath id="_clipPath_Gf4xw0XyaJqDDuMEJJHr2aOVa9nFOba2"><rect x="8" y="8" width="48" height="48"/></clipPath></defs><g clip-path="url(#_clipPath_Gf4xw0XyaJqDDuMEJJHr2aOVa9nFOba2)"><path d=" M 22 8 C 26.418 8 30 11.582 30 16 L 30 22 C 30 26.418 26.418 30 22 30 L 16 30 C 11.582 30 8 26.418 8 22 L 8 16 C 8 11.582 11.582 8 16 8 L 22 8 Z  M 22 13 L 16 13 C 14.402 13 13.096 14.249 13.005 15.824 L 13 16 L 13 22 C 13 23.598 14.249 24.904 15.824 24.995 L 16 25 L 22 25 C 23.598 25 24.904 23.751 24.995 22.176 L 25 22 L 25 16 C 25 14.402 23.751 13.096 22.176 13.005 L 22 13 Z " fill="rgb(0,0,0)"/><path d=" M 48 8 C 52.418 8 56 11.582 56 16 L 56 22 C 56 26.418 52.418 30 48 30 L 42 30 C 37.582 30 34 26.418 34 22 L 34 16 C 34 11.582 37.582 8 42 8 L 48 8 Z  M 48 13 L 42 13 C 40.402 13 39.096 14.249 39.005 15.824 L 39 16 L 39 22 C 39 23.598 40.249 24.904 41.824 24.995 L 42 25 L 48 25 C 49.598 25 50.904 23.751 50.995 22.176 L 51 22 L 51 16 C 51 14.402 49.751 13.096 48.176 13.005 L 48 13 Z " fill="rgb(0,0,0)"/><path d=" M 22 34 C 26.418 34 30 37.582 30 42 L 30 48 C 30 52.418 26.418 56 22 56 L 16 56 C 11.582 56 8 52.418 8 48 L 8 42 C 8 37.582 11.582 34 16 34 L 22 34 Z  M 22 39 L 16 39 C 14.402 39 13.096 40.249 13.005 41.824 L 13 42 L 13 48 C 13 49.598 14.249 50.904 15.824 50.995 L 16 51 L 22 51 C 23.598 51 24.904 49.751 24.995 48.176 L 25 48 L 25 42 C 25 40.402 23.751 39.096 22.176 39.005 L 22 39 Z " fill="rgb(0,0,0)"/><path d=" M 48 34 C 52.418 34 56 37.582 56 42 L 56 48 C 56 52.418 52.418 56 48 56 L 42 56 C 37.582 56 34 52.418 34 48 L 34 42 C 34 37.582 37.582 34 42 34 L 48 34 Z  M 48 39 L 42 39 C 40.402 39 39.096 40.249 39.005 41.824 L 39 42 L 39 48 C 39 49.598 40.249 50.904 41.824 50.995 L 42 51 L 48 51 C 49.598 51 50.904 49.751 50.995 48.176 L 51 48 L 51 42 C 51 40.402 49.751 39.096 48.176 39.005 L 48 39 Z " fill="rgb(0,0,0)"/></g></svg>