<?xml version="1.0" encoding="UTF-8" standalone="no"?><!-- Generator: Gravit.io --><svg xmlns="http://www.w3.org/2000/svg" xmlns:xlink="http://www.w3.org/1999/xlink" style="isolation:isolate" viewBox="2 2 20 20" width="20pt" height="20pt"><defs><clipPath id="_clipPath_29HBJNejlthRV0efUsxjGT83oRrOUz1O"><rect x="2" y="2" width="20" height="20"/></clipPath></defs><g clip-path="url(#_clipPath_29HBJNejlthRV0efUsxjGT83oRrOUz1O)"><g><g><path d=" M 19 18 C 19.55 18 20 18.45 20 19 C 20 19.55 19.55 20 19 20 L 12 20 C 11.45 20 11 19.55 11 19 C 11 18.45 11.45 18 12 18 L 19 18 Z  M 19 16 L 12 16 C 10.346 16 9 17.346 9 19 C 9 20.654 10.346 22 12 22 L 19 22 C 20.654 22 22 20.654 22 19 C 22 17.346 20.654 16 19 16 Z " fill="rgb(0,0,0)"/></g></g><g><g><path d=" M 19 11 C 19.55 11 20 11.45 20 12 C 20 12.55 19.55 13 19 13 L 12 13 C 11.45 13 11 12.55 11 12 C 11 11.45 11.45 11 12 11 L 19 11 Z  M 19 9 L 12 9 C 10.346 9 9 10.346 9 12 C 9 13.654 10.346 15 12 15 L 19 15 C 20.654 15 22 13.654 22 12 C 22 10.346 20.654 9 19 9 Z " fill="rgb(0,0,0)"/></g></g><g><g><path d=" M 19 4 C 19.55 4 20 4.45 20 5 C 20 5.55 19.55 6 19 6 L 12 6 C 11.45 6 11 5.55 11 5 C 11 4.45 11.45 4 12 4 L 19 4 Z  M 19 2 L 12 2 C 10.346 2 9 3.346 9 5 C 9 6.654 10.346 8 12 8 L 19 8 C 20.654 8 22 6.654 22 5 C 22 3.346 20.654 2 19 2 Z " fill="rgb(0,0,0)"/></g></g><path d=" M 6 16 L 4 16 C 2.896 16 2 16.896 2 18 L 2 20 C 2 21.104 2.896 22 4 22 L 6 22 C 7.104 22 8 21.104 8 20 L 8 18 C 8 16.896 7.104 16 6 16 Z  M 6 20 L 4 20 L 4 18 L 6 18 L 6 20 Z " fill="rgb(0,0,0)"/><path d=" M 6 9 L 4 9 C 2.896 9 2 9.896 2 11 L 2 13 C 2 14.104 2.896 15 4 15 L 6 15 C 7.104 15 8 14.104 8 13 L 8 11 C 8 9.896 7.104 9 6 9 Z  M 6 13 L 4 13 L 4 11 L 6 11 L 6 13 Z " fill="rgb(0,0,0)"/><path d=" M 6 2 L 4 2 C 2.896 2 2 2.896 2 4 L 2 6 C 2 7.104 2.896 8 4 8 L 6 8 C 7.104 8 8 7.104 8 6 L 8 4 C 8 2.896 7.104 2 6 2 Z  M 6 6 L 4 6 L 4 4 L 6 4 L 6 6 Z " fill="rgb(0,0,0)"/></g></svg>